<?xml version="1.0" standalone="no"?>
<!DOCTYPE svg PUBLIC "-//W3C//DTD SVG 20010904//EN"
 "http://www.w3.org/TR/2001/REC-SVG-20010904/DTD/svg10.dtd">
<svg version="1.0" xmlns="http://www.w3.org/2000/svg"
 width="16.000000pt" height="16.000000pt" viewBox="0 0 16.000000 16.000000"
 preserveAspectRatio="xMidYMid meet">
<metadata>
Created by potrace 1.11, written by Peter Selinger 2001-2013
</metadata>
<g transform="translate(0.000000,16.000000) scale(0.006154,-0.006154)"
fill="#000000" stroke="none">
<path d="M371 2584 c-30 -8 -77 -27 -105 -42 -65 -34 -174 -142 -208 -208 -59
-110 -58 -89 -58 -1040 0 -841 1 -874 20 -936 48 -158 181 -290 339 -338 61
-19 97 -20 941 -20 847 0 880 1 942 20 158 48 290 181 338 339 19 61 20 97 20
941 0 847 -1 880 -20 942 -50 164 -192 300 -355 343 -86 22 -1771 22 -1854 -1z
m779 -609 c30 -9 61 -24 68 -33 6 -9 12 -40 12 -69 l0 -53 -38 19 c-114 58
-319 73 -448 33 -233 -72 -367 -281 -368 -572 -1 -132 12 -195 60 -297 61
-129 164 -216 303 -257 119 -35 339 -13 452 44 l42 22 -6 -57 c-3 -32 -9 -61
-14 -66 -4 -4 -48 -19 -98 -34 -457 -132 -837 125 -862 582 -9 166 27 329 99
451 51 86 161 192 245 235 121 63 195 78 358 73 91 -3 159 -10 195 -21z m838
-5 c103 -24 180 -80 224 -163 33 -61 33 -200 0 -273 -28 -61 -89 -123 -157
-157 -32 -16 -45 -27 -35 -30 8 -3 36 -11 63 -17 52 -14 124 -61 157 -102 55
-71 79 -180 60 -275 -26 -122 -92 -208 -204 -263 -79 -39 -162 -49 -393 -50
l-183 0 0 670 0 670 213 0 c116 0 231 -5 255 -10z"/>
<path d="M1640 1631 l0 -241 118 0 c179 0 270 37 326 132 50 87 40 222 -21
280 -61 56 -85 63 -260 66 l-163 4 0 -241z"/>
<path d="M1640 1015 l0 -265 149 0 c119 0 162 4 210 19 126 39 181 116 181
251 -1 130 -53 201 -176 240 -54 16 -93 20 -215 20 l-149 0 0 -265z"/>
</g>
</svg>
